<svg version="1.1" viewBox="0.0 0.0 480.0 360.0" fill="none" stroke="none" stroke-linecap="square" stroke-miterlimit="10" xmlns:xlink="http://www.w3.org/1999/xlink" xmlns="http://www.w3.org/2000/svg"><clipPath id="p.0"><path d="m0 0l480.0 0l0 360.0l-480.0 0l0 -360.0z" clip-rule="nonzero"/></clipPath><g clip-path="url(#p.0)"><path fill="#000000" fill-opacity="0.0" d="m0 0l480.0 0l0 360.0l-480.0 0z" fill-rule="evenodd"/><path fill="#000000" fill-opacity="0.676" d="m0 0l480.0 0l0 360.0l-480.0 0zm65.1744 65.1744l0 229.65118l349.65118 0l0 -229.65118z" fill-rule="evenodd"/><g filter="url(#shadowFilter-p.1)"><use xlink:href="#p.1" transform=""/></g><defs><filter id="shadowFilter-p.1" filterUnits="userSpaceOnUse"><feGaussianBlur in="SourceAlpha" stdDeviation="5.0" result="blur"/><feComponentTransfer in="blur" color-interpolation-filters="sRGB"><feFuncR type="linear" slope="0" intercept="0.0"/><feFuncG type="linear" slope="0" intercept="0.0"/><feFuncB type="linear" slope="0" intercept="0.0"/><feFuncA type="linear" slope="1.0" intercept="0"/></feComponentTransfer></filter></defs><g id="p.1"><path fill="#000000" fill-opacity="0.0" d="m65.69292 70.882675l0 0c0 -3.7214737 3.0168457 -6.7383194 6.738312 -6.7383194l335.15326 0c1.7871399 0 3.5010376 0.7099304 4.7647095 1.9736099c1.2637024 1.2636795 1.9736328 2.9775925 1.9736328 4.7647095l0 218.23991c0 3.721466 -3.0168457 6.738312 -6.7383423 6.738312l-335.15326 0c-3.721466 0 -6.738312 -3.0168457 -6.738312 -6.738312z" fill-rule="evenodd"/><path stroke="#dd636e" stroke-width="8.0" stroke-linejoin="round" stroke-linecap="butt" d="m65.69292 70.882675l0 0c0 -3.7214737 3.0168457 -6.7383194 6.738312 -6.7383194l335.15326 0c1.7871399 0 3.5010376 0.7099304 4.7647095 1.9736099c1.2637024 1.2636795 1.9736328 2.9775925 1.9736328 4.7647095l0 218.23991c0 3.721466 -3.0168457 6.738312 -6.7383423 6.738312l-335.15326 0c-3.721466 0 -6.738312 -3.0168457 -6.738312 -6.738312z" fill-rule="evenodd"/></g></g></svg>